<?xml version="1.0" encoding="utf-8"?>
<!-- Generator: Adobe Illustrator 15.1.0, SVG Export Plug-In . SVG Version: 6.00 Build 0)  -->
<!DOCTYPE svg PUBLIC "-//W3C//DTD SVG 1.1//EN" "http://www.w3.org/Graphics/SVG/1.1/DTD/svg11.dtd">
<svg version="1.1" xmlns="http://www.w3.org/2000/svg" xmlns:xlink="http://www.w3.org/1999/xlink" x="0px" y="0px" width="140px"
	 height="140px" viewBox="0 0 140 140" enable-background="new 0 0 140 140" xml:space="preserve">
<g id="Layer_2">
	<rect fill="#EF3F3F" width="140" height="140"/>
</g>
<g id="Layer_1">
	<path fill="#FFFFFF" d="M55.81,55.724c-0.218,0.218-0.684,0.327-1.396,0.327h-2.496c-0.713,0-1.188-0.109-1.426-0.327
		c-0.238-0.217-0.356-0.683-0.356-1.396v-4.634h-5.407v5.466c0,3.487,1.842,5.229,5.526,5.229h5.763
		c3.723,0,5.585-1.742,5.585-5.229V44.464c0-3.484-1.823-5.228-5.466-5.228h-4.337c-0.713,0-1.188-0.108-1.426-0.328
		c-0.237-0.217-0.356-0.683-0.356-1.396v-8.259c0-0.713,0.119-1.178,0.356-1.396c0.238-0.217,0.713-0.327,1.426-0.327h2.496
		c0.713,0,1.188,0.11,1.426,0.327c0.238,0.218,0.356,0.684,0.356,1.396v4.635h5.407v-5.466c0-3.486-1.842-5.229-5.525-5.229h-5.823
		c-3.684,0-5.526,1.743-5.526,5.229v9.804c0,3.526,1.802,5.288,5.407,5.288h4.397c0.713,0,1.178,0.11,1.396,0.327
		c0.217,0.218,0.327,0.683,0.327,1.396v9.09C56.136,55.041,56.026,55.507,55.81,55.724z"/>
	<path fill="#FFFFFF" d="M83.824,27.828l3.387,19.607h-6.477L83.824,27.828z M94.816,60.388l-7.071-37.195h-7.783l-6.596,37.195
		h5.348l1.367-8.615h7.843l1.486,8.615H94.816z"/>
	<path fill="#FFFFFF" d="M61.959,72.984c0-3.484-1.842-5.229-5.526-5.229h-6.357c-3.684,0-5.526,1.744-5.526,5.229v26.738
		c0,3.526,1.842,5.288,5.526,5.288h6.357c3.684,0,5.526-1.762,5.526-5.288V85.818h-8.378v4.159h2.971v9.091
		c0,0.713-0.119,1.179-0.357,1.396c-0.237,0.218-0.713,0.327-1.426,0.327h-3.03c-0.713,0-1.188-0.108-1.426-0.327
		c-0.238-0.217-0.356-0.684-0.356-1.396V73.697c0-0.713,0.119-1.178,0.356-1.396c0.238-0.217,0.713-0.327,1.426-0.327h3.03
		c0.713,0,1.188,0.11,1.426,0.327c0.238,0.219,0.357,0.683,0.357,1.396v4.932h5.407V72.984z"/>
	<path fill="#FFFFFF" d="M81.745,87.897h8.556v-4.337h-8.556V72.093h10.339v-4.337H76.338v37.194h16.161v-4.337H81.745V87.897z"/>
	<path fill-rule="evenodd" clip-rule="evenodd" fill="#FFFFFF" d="M44.876,110.93H92.41v4.753H44.876V110.93z"/>
</g>
</svg>
